<svg id="svg" version="1.1" xmlns="http://www.w3.org/2000/svg" xmlns:xlink="http://www.w3.org/1999/xlink" width="400" height="191.8656268746251" viewBox="0, 0, 400,191.8656268746251"><g id="svgg"><path id="path0" d="M79.250 66.184 C 71.464 67.002,64.387 71.018,59.671 77.296 C 56.975 80.885,56.518 82.385,57.746 83.613 C 58.972 84.838,60.384 84.333,61.634 82.222 C 71.292 65.920,94.704 66.668,103.191 83.549 C 110.712 98.508,100.218 116.476,83.374 117.481 C 80.659 117.643,79.600 118.452,79.914 120.126 C 80.227 121.794,82.002 122.211,86.126 121.588 C 102.949 119.044,113.556 102.454,108.836 86.070 C 105.179 73.378,92.419 64.802,79.250 66.184 M80.000 73.771 C 63.778 75.836,56.256 94.145,66.397 106.882 L 66.901 107.514 60.718 113.716 C 57.317 117.126,54.452 120.080,54.351 120.281 C 53.468 122.026,55.530 124.030,57.264 123.113 C 58.090 122.677,71.964 108.645,72.093 108.116 C 72.339 107.108,72.079 106.545,70.681 105.068 C 64.496 98.534,64.651 88.691,71.035 82.567 C 80.862 73.139,97.052 79.444,97.944 93.045 C 98.073 95.022,98.380 95.617,99.464 95.995 C 103.841 97.520,102.986 88.089,98.167 81.694 C 94.050 76.230,86.510 72.942,80.000 73.771 M188.443 75.576 C 185.288 76.701,186.175 81.237,189.552 81.247 C 190.839 81.251,191.710 80.846,192.285 79.977 C 193.974 77.424,191.431 74.511,188.443 75.576 M247.668 75.588 C 244.161 77.172,246.069 82.180,249.796 81.177 C 252.322 80.497,252.908 77.167,250.737 75.826 C 249.970 75.351,248.453 75.234,247.668 75.588 M285.500 91.250 L 285.500 106.000 288.000 106.000 L 290.500 106.000 290.500 100.175 C 290.500 92.832,290.668 91.963,292.391 90.375 C 294.617 88.323,298.786 88.430,300.427 90.582 C 301.419 91.883,301.500 92.560,301.500 99.598 L 301.500 106.000 304.012 106.000 L 306.525 106.000 306.459 98.792 C 306.378 89.947,306.174 88.983,303.924 86.855 C 300.899 83.994,294.933 83.830,291.383 86.511 L 290.500 87.177 290.500 81.839 L 290.500 76.500 288.000 76.500 L 285.500 76.500 285.500 91.250 M313.500 82.583 L 313.500 85.000 311.750 85.000 L 310.000 85.000 310.000 87.000 L 310.000 89.000 311.750 89.000 L 313.500 89.000 313.500 94.658 C 313.500 101.750,313.746 102.979,315.479 104.544 C 317.627 106.485,321.877 106.923,324.680 105.493 C 325.595 105.026,325.604 104.931,324.899 103.148 C 324.149 101.253,324.252 101.378,323.703 101.701 C 322.586 102.360,320.517 102.373,319.528 101.728 C 318.582 101.111,318.508 100.588,318.504 94.542 L 318.500 89.000 321.333 89.000 L 324.167 89.000 324.167 87.000 L 324.167 85.000 321.333 85.000 L 318.500 85.000 318.500 82.583 L 318.500 80.167 316.000 80.167 L 313.500 80.167 313.500 82.583 M80.417 81.438 C 78.680 81.780,78.130 81.930,77.257 82.301 C 68.100 86.196,66.702 98.513,74.764 104.266 C 79.164 107.406,85.646 107.317,89.621 104.061 C 92.040 102.080,89.561 99.001,86.908 100.692 C 80.966 104.479,73.831 100.735,73.839 93.833 C 73.844 89.409,76.959 86.214,81.799 85.672 C 83.463 85.485,84.167 84.847,84.167 83.525 C 84.167 81.837,82.657 80.997,80.417 81.438 M134.562 84.996 C 123.754 87.830,123.769 103.084,134.583 105.926 C 139.262 107.156,144.745 105.384,146.627 102.035 L 147.004 101.364 145.160 100.290 L 143.315 99.216 142.282 100.248 C 137.171 105.355,128.963 99.126,132.034 92.471 C 133.898 88.429,139.658 87.543,142.553 90.852 L 143.285 91.689 144.768 90.825 C 145.583 90.349,146.422 89.853,146.631 89.722 L 147.012 89.484 146.631 88.806 C 144.784 85.519,139.242 83.769,134.562 84.996 M155.200 84.995 C 149.539 86.520,147.511 92.441,151.589 95.540 C 152.914 96.547,153.572 96.743,159.083 97.767 C 162.016 98.312,162.766 98.814,162.619 100.135 C 162.336 102.668,156.771 103.066,152.124 100.886 C 151.413 100.553,150.803 100.311,150.768 100.348 C 150.474 100.667,149.015 103.889,149.101 104.029 C 149.285 104.326,151.528 105.297,152.851 105.652 C 160.615 107.737,167.500 104.975,167.500 99.774 C 167.500 96.183,165.618 94.716,159.667 93.665 C 155.978 93.014,154.786 92.520,154.485 91.515 C 153.610 88.595,159.830 87.536,164.342 89.838 L 164.937 90.141 165.840 88.362 C 166.337 87.384,166.767 86.538,166.794 86.484 C 166.878 86.318,164.944 85.516,163.555 85.140 C 161.609 84.615,156.915 84.533,155.200 84.995 M207.583 84.982 C 206.227 85.378,205.073 85.994,204.125 86.830 L 203.333 87.528 203.333 86.181 L 203.333 84.833 201.000 84.833 L 198.667 84.833 198.667 95.417 L 198.667 106.000 201.158 106.000 L 203.649 106.000 203.699 99.538 L 203.750 93.075 204.299 91.961 C 206.296 87.905,212.602 87.819,214.205 91.827 C 214.560 92.716,214.576 92.995,214.632 99.375 L 214.690 106.000 217.095 106.000 L 219.500 106.000 219.498 98.958 C 219.494 90.079,219.307 89.127,217.144 86.979 C 215.032 84.881,210.893 84.017,207.583 84.982 M229.893 84.984 C 225.533 86.056,223.317 89.325,224.408 93.077 C 225.161 95.667,226.761 96.469,233.892 97.831 C 237.080 98.441,237.808 99.188,236.949 100.973 C 236.042 102.858,229.566 102.633,226.092 100.597 L 225.398 100.191 224.456 102.083 L 223.514 103.976 224.215 104.384 C 227.944 106.554,234.724 106.929,238.411 105.169 C 241.138 103.868,242.482 101.447,242.003 98.699 C 241.474 95.658,239.891 94.699,233.417 93.496 C 229.972 92.857,229.000 92.307,229.000 91.000 C 229.000 88.455,234.682 87.731,238.695 89.765 C 239.435 90.139,239.499 90.147,239.642 89.875 C 239.727 89.715,240.176 88.858,240.640 87.971 L 241.484 86.358 240.280 85.856 C 237.512 84.704,232.681 84.298,229.893 84.984 M263.727 84.997 C 253.647 87.639,253.653 101.955,263.736 104.675 C 267.133 105.592,271.070 104.884,273.249 102.966 L 274.041 102.269 273.956 103.926 C 273.857 105.831,273.680 106.515,273.037 107.473 C 270.955 110.572,264.411 110.646,259.829 107.622 L 259.408 107.344 258.371 109.074 C 257.120 111.159,257.127 111.040,258.208 111.727 C 263.407 115.031,272.593 114.746,276.170 111.170 C 278.775 108.565,278.888 107.916,278.959 95.292 L 279.018 84.833 276.676 84.833 L 274.333 84.833 274.333 86.247 L 274.333 87.661 273.544 86.905 C 271.448 84.897,267.234 84.078,263.727 84.997 M333.560 84.997 C 330.045 85.918,328.148 87.944,328.026 90.904 C 327.860 94.939,329.579 96.362,335.995 97.500 C 340.280 98.261,341.000 98.626,341.000 100.039 C 341.000 102.624,334.980 103.093,330.447 100.861 L 329.143 100.219 328.233 102.034 C 327.184 104.125,327.167 104.034,328.765 104.773 C 336.438 108.318,345.534 105.771,345.800 100.002 C 345.977 96.161,344.245 94.802,337.624 93.586 C 333.776 92.879,332.833 92.367,332.833 90.984 C 332.833 88.480,338.039 87.745,342.250 89.654 L 343.340 90.149 344.258 88.317 C 345.335 86.171,345.375 86.334,343.602 85.692 C 340.654 84.626,336.163 84.315,333.560 84.997 M187.167 95.417 L 187.167 106.000 189.667 106.000 L 192.167 106.000 192.167 95.417 L 192.167 84.833 189.667 84.833 L 187.167 84.833 187.167 95.417 M246.500 95.417 L 246.500 106.000 248.917 106.000 L 251.333 106.000 251.333 95.417 L 251.333 84.833 248.917 84.833 L 246.500 84.833 246.500 95.417 M56.376 85.784 C 55.328 85.986,54.873 86.960,54.421 89.974 C 53.780 94.239,54.341 96.164,56.225 96.166 C 57.801 96.168,58.360 95.337,58.525 92.750 C 58.595 91.650,58.768 90.201,58.910 89.531 C 59.249 87.921,59.233 87.361,58.829 86.698 C 58.341 85.898,57.470 85.573,56.376 85.784 M269.977 89.147 C 273.075 90.111,274.746 93.148,273.930 96.332 C 272.253 102.879,261.853 102.197,261.227 95.499 C 260.792 90.840,265.181 87.654,269.977 89.147 M91.365 92.161 C 90.751 92.547,90.333 93.374,90.334 94.203 C 90.335 94.504,90.209 95.358,90.055 96.100 C 89.723 97.700,89.972 98.465,91.008 99.036 C 93.101 100.189,94.900 97.678,94.633 93.980 C 94.503 92.187,92.818 91.249,91.365 92.161 M170.833 95.000 L 170.833 97.000 176.250 97.000 L 181.667 97.000 181.667 95.000 L 181.667 93.000 176.250 93.000 L 170.833 93.000 170.833 95.000 M76.365 109.671 C 75.390 110.266,75.062 111.636,75.660 112.617 C 76.755 114.413,83.062 114.820,83.925 113.150 C 84.890 111.284,83.796 110.062,80.950 109.827 C 79.923 109.742,78.821 109.596,78.501 109.503 C 77.623 109.247,76.976 109.298,76.365 109.671 " stroke="none" fill="#fafbfb" fill-rule="evenodd"></path><path id="path1" d="M0.000 95.917 L 0.000 191.833 200.000 191.833 L 400.000 191.833 400.000 95.917 L 400.000 0.000 200.000 0.000 L 0.000 0.000 0.000 95.917 M85.171 66.175 C 104.574 68.586,115.676 88.989,107.067 106.417 C 102.717 115.222,94.315 120.910,84.278 121.845 C 81.243 122.128,80.102 121.660,79.884 120.042 C 79.655 118.327,80.534 117.654,83.250 117.466 C 107.096 115.817,114.024 84.253,92.973 73.171 C 81.684 67.228,67.013 71.686,61.362 82.776 C 60.655 84.164,59.523 84.616,58.271 84.010 C 56.938 83.365,56.670 82.161,57.506 80.572 C 62.638 70.815,74.179 64.810,85.171 66.175 M85.279 73.916 C 94.749 75.452,102.195 83.810,102.240 92.954 L 102.250 94.992 101.705 95.537 C 100.392 96.853,98.000 95.924,98.000 94.098 C 98.000 83.591,87.601 75.751,77.617 78.732 C 66.199 82.142,62.385 96.343,70.582 104.928 C 72.108 106.526,72.167 106.624,72.167 107.562 L 72.167 108.413 64.706 115.873 L 57.246 123.333 56.415 123.333 C 55.282 123.332,54.618 122.902,54.247 121.931 C 53.757 120.648,53.793 120.602,60.645 113.759 L 66.873 107.540 66.027 106.436 C 54.842 91.843,67.191 70.982,85.279 73.916 M191.047 75.563 C 194.045 76.850,193.004 81.313,189.703 81.330 C 186.790 81.345,185.377 78.095,187.443 76.135 C 188.293 75.329,189.905 75.073,191.047 75.563 M250.436 75.652 C 252.694 76.678,252.684 79.903,250.418 80.999 C 248.177 82.084,245.448 80.386,245.709 78.069 C 245.950 75.932,248.350 74.705,250.436 75.652 M290.500 81.851 L 290.500 87.201 291.116 86.660 C 294.437 83.745,300.963 83.867,304.048 86.903 C 306.254 89.075,306.500 90.313,306.500 99.261 L 306.500 106.167 304.010 106.167 L 301.521 106.167 301.466 99.458 C 301.404 91.874,301.356 91.561,300.043 90.303 C 298.150 88.489,294.430 88.542,292.360 90.413 C 290.734 91.881,290.508 93.127,290.503 100.625 L 290.500 106.167 288.000 106.167 L 285.500 106.167 285.500 91.333 L 285.500 76.500 288.000 76.500 L 290.500 76.500 290.500 81.851 M318.500 82.500 L 318.500 85.000 321.333 85.000 L 324.167 85.000 324.167 87.000 L 324.167 89.000 321.333 89.000 L 318.500 89.000 318.500 94.392 C 318.500 100.014,318.558 100.559,319.231 101.308 C 320.106 102.279,321.978 102.487,323.393 101.770 C 324.299 101.312,324.160 101.182,324.967 103.250 C 325.670 105.051,325.673 104.968,324.882 105.420 C 321.040 107.615,315.564 106.114,314.016 102.443 L 313.583 101.417 313.532 95.208 L 313.481 89.000 311.741 89.000 L 310.000 89.000 310.000 87.000 L 310.000 85.000 311.750 85.000 L 313.500 85.000 313.500 82.500 L 313.500 80.000 316.000 80.000 L 318.500 80.000 318.500 82.500 M83.218 81.644 C 85.321 83.031,84.352 85.468,81.583 85.751 C 75.543 86.368,72.104 92.267,74.686 97.583 C 76.866 102.071,82.304 103.524,86.647 100.781 C 88.366 99.694,89.617 99.883,90.383 101.345 C 91.839 104.125,85.479 107.354,80.216 106.505 C 69.312 104.747,65.555 91.022,74.089 84.118 C 76.763 81.954,81.671 80.624,83.218 81.644 M141.083 84.908 C 142.776 85.354,144.445 86.275,145.478 87.331 C 146.335 88.207,147.153 89.417,146.985 89.560 C 145.894 90.487,143.160 91.764,142.950 91.444 C 140.287 87.382,133.622 88.257,131.900 92.896 C 131.429 94.165,131.469 96.908,131.977 98.200 C 133.590 102.299,139.295 103.325,142.414 100.078 L 143.309 99.147 145.073 100.176 C 147.192 101.412,147.145 101.348,146.572 102.213 C 142.417 108.492,130.864 107.414,127.571 100.440 C 123.348 91.498,131.321 82.334,141.083 84.908 M161.583 84.744 C 163.791 85.060,166.833 86.032,166.833 86.423 C 166.833 86.558,165.003 90.167,164.934 90.167 C 164.899 90.167,164.394 89.944,163.810 89.672 C 159.864 87.830,154.500 88.573,154.500 90.961 C 154.500 92.410,155.463 92.892,159.917 93.667 C 165.700 94.674,167.417 96.047,167.417 99.667 C 167.417 102.232,166.479 103.814,164.238 105.030 C 160.670 106.966,153.403 106.664,149.576 104.421 L 148.837 103.988 149.771 102.119 C 150.284 101.091,150.730 100.223,150.760 100.189 C 150.791 100.156,151.071 100.286,151.383 100.479 C 155.006 102.718,161.725 102.769,162.487 100.563 C 163.012 99.047,162.257 98.443,159.081 97.836 C 152.236 96.528,150.491 95.655,149.765 93.178 C 148.098 87.489,153.553 83.597,161.583 84.744 M212.902 84.750 C 216.149 85.438,218.357 87.463,219.261 90.583 C 219.511 91.446,219.561 92.588,219.622 98.879 L 219.694 106.175 217.139 106.129 L 214.583 106.083 214.500 99.167 L 214.417 92.250 213.969 91.402 C 212.150 87.955,206.104 88.218,204.395 91.818 C 203.729 93.222,203.671 93.893,203.669 100.125 L 203.667 106.167 201.167 106.167 L 198.667 106.167 198.667 95.500 L 198.667 84.833 201.083 84.833 L 203.500 84.833 203.500 86.097 L 203.500 87.362 204.292 86.663 C 206.341 84.856,209.788 84.090,212.902 84.750 M235.780 84.678 C 237.578 84.923,239.508 85.429,240.583 85.938 L 241.486 86.366 240.557 88.225 C 240.047 89.247,239.611 90.103,239.590 90.127 C 239.568 90.152,239.139 89.983,238.635 89.752 C 234.086 87.670,228.379 88.671,229.072 91.431 C 229.341 92.501,230.093 92.800,234.912 93.751 C 240.466 94.848,242.074 96.194,242.081 99.750 C 242.091 105.821,232.300 108.537,224.553 104.611 C 223.373 104.012,223.376 104.074,224.408 102.017 L 225.327 100.185 226.723 100.839 C 231.442 103.051,237.167 102.554,237.167 99.933 C 237.167 98.637,236.484 98.299,232.430 97.586 C 225.911 96.441,224.166 95.088,224.167 91.179 C 224.167 86.550,229.130 83.772,235.780 84.678 M269.917 84.912 C 271.301 85.279,272.485 85.882,273.395 86.683 L 274.167 87.362 274.167 86.097 L 274.167 84.833 276.590 84.833 L 279.014 84.833 278.960 95.375 C 278.901 107.005,278.935 106.606,277.801 108.988 C 277.110 110.440,275.462 112.093,274.000 112.801 C 269.524 114.970,261.281 114.248,257.528 111.360 L 257.139 111.061 258.178 109.322 C 259.462 107.174,259.425 107.215,259.788 107.538 C 261.433 109.005,265.893 110.087,268.729 109.707 C 272.164 109.248,273.745 107.500,273.960 103.927 L 274.050 102.437 273.307 103.045 C 267.683 107.654,258.260 104.540,256.476 97.482 C 254.450 89.474,261.668 82.724,269.917 84.912 M339.583 84.685 C 341.801 84.957,345.167 86.018,345.167 86.446 C 345.167 86.595,343.491 89.885,343.323 90.066 C 343.242 90.154,343.009 90.102,342.767 89.943 C 339.469 87.782,332.833 88.462,332.833 90.961 C 332.833 92.375,333.692 92.798,338.333 93.670 C 341.173 94.204,342.611 94.639,343.500 95.235 C 346.963 97.555,346.761 102.331,343.099 104.697 C 339.524 107.008,331.804 106.810,327.707 104.304 L 327.164 103.971 328.032 102.277 C 329.203 99.989,329.076 100.106,329.892 100.560 C 333.615 102.636,339.746 102.774,340.764 100.806 C 341.650 99.093,340.592 98.343,336.218 97.583 C 329.762 96.462,327.936 95.067,327.926 91.250 C 327.913 86.505,332.654 83.836,339.583 84.685 M192.167 95.500 L 192.167 106.167 189.667 106.167 L 187.167 106.167 187.167 95.500 L 187.167 84.833 189.667 84.833 L 192.167 84.833 192.167 95.500 M251.460 95.458 L 251.417 106.083 248.875 106.129 L 246.333 106.175 246.333 95.504 L 246.333 84.833 248.918 84.833 L 251.502 84.833 251.460 95.458 M57.994 85.913 C 59.183 86.529,59.375 87.330,58.911 89.750 C 58.770 90.483,58.609 91.888,58.552 92.873 C 58.404 95.443,57.734 96.312,56.043 96.121 C 54.011 95.892,53.574 93.565,54.613 88.508 C 55.122 86.033,56.371 85.074,57.994 85.913 M265.979 88.979 C 258.674 90.531,260.140 100.767,267.663 100.744 C 271.745 100.732,273.917 98.679,273.917 94.833 C 273.917 90.641,270.392 88.042,265.979 88.979 M93.808 92.153 C 95.740 93.187,94.513 99.037,92.314 99.285 C 90.379 99.503,89.512 98.128,90.087 95.750 C 90.219 95.200,90.329 94.393,90.331 93.956 C 90.336 92.212,92.155 91.269,93.808 92.153 M181.667 95.000 L 181.667 97.167 176.167 97.167 L 170.667 97.167 170.667 95.000 L 170.667 92.833 176.167 92.833 L 181.667 92.833 181.667 95.000 M79.223 109.583 C 79.941 109.721,80.976 109.833,81.523 109.833 C 83.465 109.833,84.599 111.060,84.161 112.687 C 83.783 114.091,82.672 114.487,79.974 114.179 C 76.295 113.758,75.417 113.244,75.417 111.510 C 75.417 109.577,76.452 109.053,79.223 109.583 " stroke="none" fill="#1b74d3" fill-rule="evenodd"></path><path id="path2" d="M81.458 70.454 C 81.756 70.491,82.244 70.491,82.542 70.454 C 82.840 70.417,82.596 70.387,82.000 70.387 C 81.404 70.387,81.160 70.417,81.458 70.454 M62.242 74.208 L 61.583 74.917 62.292 74.258 C 62.950 73.645,63.077 73.500,62.950 73.500 C 62.923 73.500,62.605 73.819,62.242 74.208 M137.544 84.620 C 137.797 84.658,138.172 84.657,138.377 84.617 C 138.582 84.578,138.375 84.546,137.917 84.548 C 137.458 84.549,137.291 84.581,137.544 84.620 M158.375 84.619 C 158.627 84.658,159.040 84.658,159.292 84.619 C 159.544 84.581,159.337 84.550,158.833 84.550 C 158.329 84.550,158.123 84.581,158.375 84.619 M210.377 84.620 C 210.631 84.658,211.006 84.657,211.211 84.617 C 211.416 84.578,211.208 84.546,210.750 84.548 C 210.292 84.549,210.124 84.581,210.377 84.620 M233.042 84.619 C 233.294 84.658,233.706 84.658,233.958 84.619 C 234.210 84.581,234.004 84.550,233.500 84.550 C 232.996 84.550,232.790 84.581,233.042 84.619 M266.544 84.620 C 266.797 84.658,267.172 84.657,267.377 84.617 C 267.582 84.578,267.375 84.546,266.917 84.548 C 266.458 84.549,266.291 84.581,266.544 84.620 M297.211 84.620 C 297.464 84.658,297.839 84.657,298.044 84.617 C 298.249 84.578,298.042 84.546,297.583 84.548 C 297.125 84.549,296.957 84.581,297.211 84.620 M336.795 84.621 C 337.094 84.658,337.544 84.657,337.795 84.619 C 338.045 84.581,337.800 84.551,337.250 84.552 C 336.700 84.553,336.495 84.584,336.795 84.621 M246.412 95.417 C 246.412 101.283,246.433 103.659,246.458 100.696 C 246.484 97.733,246.484 92.933,246.458 90.030 C 246.433 87.126,246.412 89.550,246.412 95.417 M158.542 88.615 C 158.702 88.657,158.965 88.657,159.125 88.615 C 159.285 88.573,159.154 88.539,158.833 88.539 C 158.512 88.539,158.381 88.573,158.542 88.615 M327.881 91.250 C 327.882 91.708,327.915 91.876,327.953 91.623 C 327.991 91.369,327.990 90.994,327.951 90.789 C 327.911 90.584,327.880 90.792,327.881 91.250 M170.731 95.000 C 170.731 96.146,170.758 96.615,170.790 96.042 C 170.823 95.469,170.823 94.531,170.790 93.958 C 170.758 93.385,170.731 93.854,170.731 95.000 M69.381 93.917 C 69.382 94.375,69.415 94.543,69.453 94.289 C 69.491 94.036,69.490 93.661,69.451 93.456 C 69.411 93.251,69.380 93.458,69.381 93.917 M219.576 99.583 C 219.576 103.158,219.598 104.597,219.625 102.781 C 219.652 100.964,219.652 98.039,219.625 96.281 C 219.598 94.522,219.576 96.008,219.576 99.583 M81.460 114.285 C 81.668 114.324,81.968 114.323,82.127 114.281 C 82.286 114.239,82.117 114.207,81.750 114.209 C 81.383 114.211,81.253 114.245,81.460 114.285 M82.127 121.951 C 82.334 121.991,82.634 121.990,82.794 121.948 C 82.953 121.906,82.783 121.874,82.417 121.875 C 82.050 121.877,81.920 121.911,82.127 121.951 " stroke="none" fill="#8bbcea" fill-rule="evenodd"></path><path id="path3" d="M251.374 95.371 L 251.333 105.991 248.875 106.042 L 246.417 106.093 248.880 106.130 C 250.725 106.157,251.364 106.114,251.423 105.958 C 251.467 105.844,251.483 101.025,251.459 95.250 L 251.414 84.750 251.374 95.371 M173.552 97.125 C 175.093 97.152,177.568 97.152,179.052 97.125 C 180.536 97.097,179.275 97.075,176.250 97.075 C 173.225 97.075,172.011 97.097,173.552 97.125 M188.375 106.124 C 189.085 106.155,190.248 106.155,190.958 106.124 C 191.669 106.093,191.088 106.067,189.667 106.067 C 188.246 106.067,187.665 106.093,188.375 106.124 M199.875 106.124 C 200.585 106.155,201.748 106.155,202.458 106.124 C 203.169 106.093,202.588 106.067,201.167 106.067 C 199.746 106.067,199.165 106.093,199.875 106.124 M215.883 106.124 C 216.597 106.155,217.722 106.155,218.383 106.124 C 219.043 106.092,218.458 106.066,217.083 106.067 C 215.708 106.067,215.168 106.093,215.883 106.124 M286.708 106.124 C 287.419 106.155,288.581 106.155,289.292 106.124 C 290.002 106.093,289.421 106.067,288.000 106.067 C 286.579 106.067,285.998 106.093,286.708 106.124 M302.708 106.124 C 303.419 106.155,304.581 106.155,305.292 106.124 C 306.002 106.093,305.421 106.067,304.000 106.067 C 302.579 106.067,301.998 106.093,302.708 106.124 " stroke="none" fill="#70abe3" fill-rule="evenodd"></path><path id="path4" d="M81.711 78.120 C 81.964 78.158,82.339 78.157,82.544 78.117 C 82.749 78.078,82.542 78.046,82.083 78.048 C 81.625 78.049,81.457 78.081,81.711 78.120 M314.708 80.124 C 315.419 80.155,316.581 80.155,317.292 80.124 C 318.002 80.093,317.421 80.067,316.000 80.067 C 314.579 80.067,313.998 80.093,314.708 80.124 M203.392 86.167 C 203.392 86.946,203.420 87.265,203.455 86.875 C 203.490 86.485,203.490 85.848,203.455 85.458 C 203.420 85.069,203.392 85.388,203.392 86.167 M274.225 86.167 C 274.225 86.946,274.254 87.265,274.289 86.875 C 274.324 86.485,274.324 85.848,274.289 85.458 C 274.254 85.069,274.225 85.388,274.225 86.167 M54.048 93.583 C 54.049 94.042,54.081 94.209,54.120 93.956 C 54.158 93.703,54.157 93.328,54.117 93.123 C 54.078 92.918,54.046 93.125,54.048 93.583 M173.375 92.958 C 174.910 92.986,177.423 92.986,178.958 92.958 C 180.494 92.931,179.237 92.908,176.167 92.908 C 173.096 92.908,171.840 92.931,173.375 92.958 M61.720 94.000 C 61.720 94.596,61.750 94.840,61.787 94.542 C 61.824 94.244,61.824 93.756,61.787 93.458 C 61.750 93.160,61.720 93.404,61.720 94.000 M214.575 100.000 C 214.575 103.346,214.598 104.715,214.625 103.042 C 214.652 101.369,214.652 98.631,214.625 96.958 C 214.598 95.285,214.575 96.654,214.575 100.000 M126.372 95.500 C 126.372 95.821,126.406 95.952,126.448 95.792 C 126.490 95.631,126.490 95.369,126.448 95.208 C 126.406 95.048,126.372 95.179,126.372 95.500 M345.875 99.750 C 345.877 100.117,345.911 100.247,345.951 100.040 C 345.991 99.832,345.990 99.532,345.948 99.373 C 345.906 99.214,345.874 99.383,345.875 99.750 M157.875 102.282 C 158.035 102.323,158.298 102.323,158.458 102.282 C 158.619 102.240,158.487 102.205,158.167 102.205 C 157.846 102.205,157.715 102.240,157.875 102.282 M232.542 102.282 C 232.702 102.323,232.965 102.323,233.125 102.282 C 233.285 102.240,233.154 102.205,232.833 102.205 C 232.512 102.205,232.381 102.240,232.542 102.282 M267.125 114.118 C 267.331 114.157,267.669 114.157,267.875 114.118 C 268.081 114.078,267.912 114.045,267.500 114.045 C 267.087 114.045,266.919 114.078,267.125 114.118 " stroke="none" fill="#4c95db" fill-rule="evenodd"></path></g></svg>